<svg xmlns="http://www.w3.org/2000/svg" width="28" height="32" viewBox="0 0 7 8" shape-rendering="crispEdges">
  <rect x="2" y="0" width="1" height="1" fill="#e5484d"/>
  <rect x="3" y="0" width="1" height="1" fill="#e5484d"/>
  <rect x="4" y="0" width="1" height="1" fill="#e5484d"/>
  <rect x="2" y="1" width="1" height="1" fill="#e5484d"/>
  <rect x="3" y="1" width="1" height="1" fill="#ffdc2e"/>
  <rect x="4" y="1" width="1" height="1" fill="#e5484d"/>
  <rect x="2" y="2" width="1" height="1" fill="#e5484d"/>
  <rect x="3" y="2" width="1" height="1" fill="#ffdc2e"/>
  <rect x="4" y="2" width="1" height="1" fill="#e5484d"/>
  <rect x="3" y="3" width="1" height="1" fill="#3fa34d"/>
  <rect x="3" y="4" width="1" height="1" fill="#3fa34d"/>
  <rect x="4" y="4" width="1" height="1" fill="#3fa34d"/>
  <rect x="2" y="5" width="1" height="1" fill="#3fa34d"/>
  <rect x="3" y="5" width="1" height="1" fill="#3fa34d"/>
  <rect x="3" y="6" width="1" height="1" fill="#3fa34d"/>
  <rect x="3" y="7" width="1" height="1" fill="#3fa34d"/>
</svg>
